<?xml version="1.0" encoding="utf-8"?>
<!-- Generator: Adobe Illustrator 16.0.0, SVG Export Plug-In . SVG Version: 6.00 Build 0)  -->
<!DOCTYPE svg PUBLIC "-//W3C//DTD SVG 1.1//EN" "http://www.w3.org/Graphics/SVG/1.1/DTD/svg11.dtd">
<svg version="1.1" id="Capa_1" xmlns="http://www.w3.org/2000/svg" xmlns:xlink="http://www.w3.org/1999/xlink" x="0px" y="0px"
	 width="94px" height="94px" viewBox="0 0 94 94" enable-background="new 0 0 94 94" xml:space="preserve">
<path fill="#FFFFFF" d="M16.327,55.25c4.716,0,8.553-4.021,8.553-8.965c0-4.943-3.837-8.962-8.553-8.962
	c-4.723,0-8.57,4.02-8.57,8.962C7.757,51.229,11.604,55.25,16.327,55.25z"/>
<path fill="#FFFFFF" d="M77.729,55.25c4.716,0,8.553-4.021,8.553-8.965c0-4.943-3.837-8.962-8.553-8.962
	c-4.723,0-8.57,4.02-8.57,8.962C69.158,51.229,73.006,55.25,77.729,55.25z"/>
<path fill="#FFFFFF" d="M81.824,56.563c0,12.873-15.683,23.309-35.028,23.309c-19.347,0-35.03-10.436-35.03-23.309
	c0-12.87,15.683-23.306,35.03-23.306C66.142,33.257,81.824,43.692,81.824,56.563z"/>
<path fill="#FFFFFF" d="M53.058,15.519c-0.7-0.223-1.448,0.164-1.671,0.864l-8.059,25.338c-0.223,0.701,0.165,1.449,0.865,1.671l0,0
	c0.7,0.223,1.448-0.164,1.67-0.865l8.06-25.338C54.146,16.489,53.758,15.741,53.058,15.519L53.058,15.519z"/>
<path fill="#FFFFFF" d="M75.43,21.579c0.152-0.719-0.213-1.405-0.816-1.532L52.807,15.44c-0.602-0.127-1.215,0.353-1.365,1.072l0,0
	c-0.152,0.719,0.213,1.405,0.815,1.532l21.807,4.607C74.666,22.778,75.278,22.298,75.43,21.579L75.43,21.579z"/>
<path fill="#FFFFFF" d="M73.854,28.348c3.911,0,7.094-3.19,7.094-7.114c0-3.921-3.183-7.11-7.094-7.11
	c-3.918,0-7.107,3.189-7.107,7.11C66.746,25.158,69.936,28.348,73.854,28.348z"/>
<path d="M20.27,41.367c-1.096-0.863-2.449-1.358-3.857-1.358c-3.451,0-6.26,2.81-6.26,6.264c0,2.002,0.971,3.847,2.535,5.009
	C13.99,47.557,16.633,44.172,20.27,41.367z"/>
<path d="M29.9,52.244c0-2.857,2.324-5.18,5.178-5.18s5.176,2.321,5.176,5.18c0,2.854-2.322,5.174-5.176,5.174
	S29.9,55.098,29.9,52.244z M59.559,67.592c-2.604,2.609-6.701,3.876-12.516,3.876c-0.016,0-0.027-0.007-0.043-0.007
	s-0.027,0.007-0.043,0.007c-5.816,0-9.91-1.267-12.52-3.876c-0.473-0.476-0.473-1.247,0.002-1.723c0.475-0.473,1.248-0.473,1.723,0
	c2.127,2.13,5.658,3.166,10.795,3.166c0.016,0,0.027,0.007,0.043,0.007s0.027-0.007,0.043-0.007c5.135,0,8.666-1.036,10.797-3.166
	c0.475-0.473,1.246-0.473,1.723,0C60.035,66.345,60.035,67.116,59.559,67.592z M58.943,57.418c-2.854,0-5.176-2.32-5.176-5.174
	c0-2.857,2.32-5.18,5.176-5.18c2.852,0,5.174,2.321,5.174,5.18C64.117,55.098,61.795,57.418,58.943,57.418z"/>
<path d="M73.84,25.911c2.576,0,4.672-2.099,4.672-4.679c0-2.579-2.096-4.677-4.672-4.677c-2.58,0-4.682,2.098-4.682,4.677
	C69.158,23.813,71.26,25.911,73.84,25.911z"/>
<path d="M77.584,40.009c-1.492,0-2.896,0.539-4.014,1.478c3.617,2.828,6.227,6.234,7.488,9.979c1.721-1.146,2.789-3.059,2.789-5.193
	C83.848,42.818,81.039,40.009,77.584,40.009z"/>
<path d="M20.27,41.459c-1.096-0.863-2.449-1.358-3.856-1.358c-3.451,0-6.26,2.81-6.26,6.264c0,2.002,0.971,3.847,2.535,5.009
	C13.99,47.648,16.633,44.264,20.27,41.459z"/>
</svg>
