<?xml version="1.0" encoding="utf-8"?>
<!-- Generator: Adobe Illustrator 16.0.0, SVG Export Plug-In . SVG Version: 6.00 Build 0)  -->
<!DOCTYPE svg PUBLIC "-//W3C//DTD SVG 1.1//EN" "http://www.w3.org/Graphics/SVG/1.1/DTD/svg11.dtd">
<svg version="1.1" id="Capa_1" xmlns="http://www.w3.org/2000/svg" xmlns:xlink="http://www.w3.org/1999/xlink" x="0px" y="0px"
	 width="94px" height="94px" viewBox="0 0 94 94" enable-background="new 0 0 94 94" xml:space="preserve">
<path fill="#FFFFFF" d="M29.688,83c0-2.986,3.584-5.4,8.013-5.4"/>
<rect x="33.221" y="78.042" transform="matrix(0.8273 -0.5617 0.5617 0.8273 -38.1942 34.765)" fill="#FFFFFF" width="8.458" height="2.932"/>
<path fill="#FFFFFF" d="M64.077,83.055c0,1.351-1.095,2.445-2.447,2.445H32.134c-1.351,0-2.447-1.095-2.447-2.445l0,0
	c0-1.352,1.096-2.446,2.447-2.446H61.63C62.982,80.608,64.077,81.703,64.077,83.055L64.077,83.055z"/>
<rect x="52.074" y="78.042" transform="matrix(-0.8274 -0.5616 0.5616 -0.8274 58.2334 176.9133)" fill="#FFFFFF" width="8.459" height="2.931"/>
<path fill="#FFFFFF" d="M64.077,83c0-2.986-3.584-5.4-8.014-5.4"/>
<path fill="#FFFFFF" d="M46.142,27.179c-0.619-0.175-0.957-0.894-0.757-1.603l4.363-15.415c0.201-0.709,0.863-1.141,1.482-0.966l0,0
	c0.619,0.175,0.961,0.893,0.76,1.601l-4.361,15.415C47.427,26.921,46.761,27.354,46.142,27.179L46.142,27.179z"/>
<path fill="#FFFFFF" d="M49.98,10.013c0.154-0.625,0.86-0.987,1.576-0.812l15.553,3.84c0.716,0.177,1.169,0.824,1.016,1.449l0,0
	c-0.153,0.625-0.859,0.991-1.574,0.814l-15.554-3.839C50.282,11.288,49.827,10.636,49.98,10.013L49.98,10.013z"/>
<path fill="#FFFFFF" d="M65.916,18.518c2.754,0,5.005-2.25,5.005-5.012c0-2.761-2.251-5.008-5.005-5.008
	c-2.766,0-5.014,2.248-5.014,5.008C60.902,16.267,63.15,18.518,65.916,18.518z"/>
<ellipse fill="#FFFFFF" stroke="#FFFFFF" stroke-miterlimit="10" cx="46.917" cy="61.692" rx="13.083" ry="23.146"/>
<path fill="#FFFFFF" stroke="#FFFFFF" stroke-miterlimit="10" d="M35.563,74.328c-1.209-4.282-1.89-9.121-1.89-14.198
	c0-2.356,0.155-4.669,0.436-6.931c-3.342,1.955-5.558,5.888-5.558,10.212C28.551,68.465,31.422,72.788,35.563,74.328z"/>
<path fill="#FFFFFF" stroke="#FFFFFF" stroke-miterlimit="10" d="M65.252,63.411c0-4.324-2.216-8.257-5.558-10.212
	c0.28,2.262,0.436,4.574,0.436,6.931c0,5.077-0.681,9.916-1.89,14.198C62.381,72.788,65.252,68.465,65.252,63.411z"/>
<ellipse fill="#FFFFFF" stroke="#FFFFFF" stroke-miterlimit="10" cx="68.62" cy="31.208" rx="6.017" ry="6.105"/>
<ellipse fill="#FFFFFF" stroke="#FFFFFF" stroke-miterlimit="10" cx="25.37" cy="31.208" rx="6.017" ry="6.105"/>
<ellipse fill="#FFFFFF" stroke="#FFFFFF" stroke-miterlimit="10" cx="47.087" cy="38.544" rx="24.618" ry="16.6"/>
<path d="M52.408,83.793h1.059h8.867c0.016-0.117,0.023-0.23,0.023-0.342c0-2.176-2.271-3.943-5.066-3.943
	c-0.65,0-1.279,0.1-1.875,0.285C54.525,81.395,53.514,82.746,52.408,83.793z"/>
<path d="M57.223,53.897l-0.167-1.079l-1.018,0.326c-5.94,1.906-12.76,1.913-18.729,0.007l-1.017-0.328l-0.166,1.08
	c-0.375,2.424-0.564,4.856-0.564,7.229c0,10.506,3.357,19.774,8.164,22.539l0.21,0.122h5.462l0.21-0.122
	c4.812-2.766,8.167-12.033,8.167-22.539C57.774,58.703,57.587,56.27,57.223,53.897z M48.909,81.907h-4.482
	c-4.083-2.57-7.025-11.231-7.025-20.775c0-1.929,0.131-3.898,0.39-5.872c5.705,1.612,12.079,1.609,17.764-0.003
	c0.251,1.935,0.378,3.907,0.378,5.873C55.934,70.676,52.991,79.339,48.909,81.907z"/>
<path d="M36.546,79.508c-2.793,0-5.066,1.768-5.066,3.943c0,0.109,0.009,0.225,0.024,0.342h9.106h0.75
	c-1.108-1.049-2.119-2.408-3.014-4.012C37.773,79.609,37.171,79.508,36.546,79.508z"/>
<path d="M63.531,63.471c0-3.572-1.672-6.822-4.193-8.438c0.211,1.869,0.328,3.779,0.328,5.727c0,4.195-0.514,8.193-1.426,11.73
	C61.365,71.219,63.531,67.646,63.531,63.471z"/>
<path d="M65.9,16.817c1.811,0,3.291-1.48,3.291-3.297c0-1.817-1.48-3.295-3.291-3.295c-1.818,0-3.297,1.479-3.297,3.295
	C62.604,15.336,64.082,16.817,65.9,16.817z"/>
<path d="M21.051,31.155c0,1.41,0.684,2.705,1.786,3.527c0.917-2.625,2.776-5.008,5.339-6.984c-0.773-0.605-1.725-0.955-2.718-0.955
	C23.027,26.742,21.051,28.721,21.051,31.155z"/>
<path d="M34.425,55.084c-2.5,1.625-4.105,4.801-4.105,8.387c0,4.148,2.143,7.666,5.196,8.967c-0.903-3.527-1.413-7.5-1.413-11.678
	C34.104,58.834,34.217,56.934,34.425,55.084z"/>
<path d="M68.537,26.742c-1.051,0-2.039,0.379-2.826,1.041c2.547,1.99,4.383,4.391,5.271,7.027c1.211-0.807,1.965-2.154,1.965-3.656
	C72.947,28.721,70.971,26.742,68.537,26.742z"/>
<path d="M38.152,44.953c-0.334,0.334-0.334,0.877,0,1.211c1.838,1.84,4.721,2.731,8.815,2.731c0.011,0,0.021-0.006,0.032-0.006
	c0.009,0,0.02,0.006,0.029,0.006c4.094,0,6.977-0.893,8.813-2.731c0.334-0.334,0.334-0.877,0.004-1.211
	c-0.338-0.336-0.883-0.336-1.217,0c-1.5,1.498-3.984,2.227-7.604,2.227c-0.01,0-0.021,0.008-0.027,0.008
	c-0.012,0-0.021-0.008-0.032-0.008c-3.616,0-6.103-0.729-7.603-2.227C39.033,44.617,38.488,44.617,38.152,44.953z"/>
<path d="M38.603,39.002c2.01,0,3.646-1.635,3.646-3.646c0-2.01-1.637-3.646-3.646-3.646c-2.011,0-3.646,1.639-3.646,3.646
	C34.958,37.366,36.594,39.002,38.603,39.002z"/>
<path d="M55.41,31.709c-2.01,0-3.645,1.639-3.645,3.646c0,2.009,1.635,3.646,3.645,3.646c2.008,0,3.643-1.635,3.643-3.646
	C59.053,33.347,57.418,31.709,55.41,31.709z"/>
<path d="M55.417,79.781c-0.895,1.604-1.904,2.963-3.014,4.012h0.75h9.107c0.014-0.117,0.023-0.232,0.023-0.342
	c0-2.176-2.273-3.943-5.066-3.943C56.593,79.508,55.991,79.609,55.417,79.781z"/>
</svg>
